<svg id="Layer_1" data-name="Layer 1" xmlns="http://www.w3.org/2000/svg" viewBox="0 0 495.26 95.18"><defs><style>.cls-1{fill:#ee1a20;}.cls-2{fill:#091217;}.cls-3{fill:#0b131a;}.cls-4{fill:#f01a26;}</style></defs><title>TACTICAL_MASTERY</title><polygon class="cls-1" points="47.12 35.92 57.98 56.1 68.85 35.91 68.85 17.63 115.97 17.63 115.97 0 0 0 0 17.63 47.12 17.63 47.12 35.92"/><polygon class="cls-2" points="94.81 62.1 94.81 95.18 115.97 95.18 115.97 24.29 94.81 62.1"/><polygon class="cls-2" points="82.57 24.26 57.98 69.91 33.4 24.26 10.19 24.26 49.85 95.18 66.11 95.18 105.78 24.26 82.57 24.26"/><polygon class="cls-2" points="0 95.18 21.16 95.18 21.16 62.1 0 24.29 0 95.18"/><path class="cls-3" d="M525.65,455.85h31v6.6H545.24v20h-8.14v-20H525.65v-6.6Z" transform="translate(-360.97 -438.2)"/><path class="cls-3" d="M575.16,455.85h10.6l14.6,26.55H591.3l-2.53-4.69h-16.5l-2.38,4.69h-9.1ZM575.31,472h10.41l-5.28-10Z" transform="translate(-360.97 -438.2)"/><path class="cls-3" d="M608.53,465.16c0-7.78,4.37-9.61,11.7-9.61h9.57c11.59,0,13.09,2.49,13,10h-8.14v-0.73c0-1.91-1.39-2.46-3.81-2.46H622c-4.29,0-5.1,2-5.1,5.32v2.86c0,3.85.81,5.32,4.66,5.32h8.69c3.67,0,4.77-.37,4.77-3.67h8.14v2.49c0,4.47-1.61,8-9.79,8H620.23c-7.33,0-11.7-1.83-11.7-9.61v-7.92Z" transform="translate(-360.97 -438.2)"/><path class="cls-3" d="M652,455.85h31v6.6H671.57v20h-8.14v-20H652v-6.6Z" transform="translate(-360.97 -438.2)"/><path class="cls-3" d="M692.88,455.85H701V482.4h-8.14V455.85Z" transform="translate(-360.97 -438.2)"/><path class="cls-3" d="M712.25,465.16c0-7.78,4.36-9.61,11.7-9.61h9.57c11.59,0,13.09,2.49,13,10h-8.14v-0.73c0-1.91-1.39-2.46-3.81-2.46h-8.87c-4.29,0-5.1,2-5.1,5.32v2.86c0,3.85.81,5.32,4.66,5.32H734c3.67,0,4.77-.37,4.77-3.67h8.14v2.49c0,4.47-1.61,8-9.79,8H723.94c-7.33,0-11.7-1.83-11.7-9.61v-7.92Z" transform="translate(-360.97 -438.2)"/><path class="cls-3" d="M769.42,455.85H780l14.59,26.55h-9.06L783,477.71h-16.5l-2.38,4.69H755ZM769.56,472H780l-5.28-10Z" transform="translate(-360.97 -438.2)"/><path class="cls-3" d="M803.38,455.85h8.14v19.73h18.3v6.82H803.38V455.85Z" transform="translate(-360.97 -438.2)"/><path class="cls-3" d="M569.67,496.77h9l6.6,12.25,6.6-12.25h9v19h-5.68V502.14h-0.05l-7.65,13.67h-4.37l-7.65-13.67h-0.05V515.8h-5.68v-19Z" transform="translate(-360.97 -438.2)"/><path class="cls-3" d="M617.38,496.77H625l10.46,19h-6.49l-1.81-3.36H615.3l-1.71,3.36h-6.52Zm0.11,11.57H625l-3.79-7.15Z" transform="translate(-360.97 -438.2)"/><path class="cls-3" d="M641.38,509.58h5.84c0,2,.84,2.18,2.52,2.18h7.15c1.23,0,2.5-.13,2.5-1.6,0-1.66-.68-1.76-8.2-1.76-8.78,0-9.78-1.05-9.78-5.73,0-3.44.31-6.1,7.68-6.1h8.15c6.73,0,7.36,2.29,7.36,5.63v0.61h-5.84c0-1.39-.16-2-2.84-2h-6.47c-1.31,0-2.21.45-2.21,1.47,0,1.66.71,1.71,7,1.68,9.07,0,11.17.53,11.17,6.07,0,5.13-1.73,6-9.49,6h-7.07c-5.31,0-7.44-1-7.44-5.12v-1.31Z" transform="translate(-360.97 -438.2)"/><path class="cls-3" d="M671.8,496.77H694v4.73h-8.2v14.3H680V501.5h-8.2v-4.73Z" transform="translate(-360.97 -438.2)"/><path class="cls-3" d="M700.79,496.77h20.82v4.42h-15v3h14.19v3.94H706.63v3h15.32v4.57H700.79v-19Z" transform="translate(-360.97 -438.2)"/><path class="cls-3" d="M729.68,496.77h17.61c4.49,0,5.7,2.24,5.7,5.65v1.21c0,2.55-.58,4-3.26,4.68v0.05c1.73,0.31,3.18,1.08,3.18,4.21v3.23h-5.84v-2.29c0-2-.58-2.66-2.39-2.66h-9.17v4.94h-5.84v-19Zm5.84,9.36h9.65c1.58,0,2.16-.63,2.16-2V503.5c0-1.68-.84-2-2.68-2h-9.12v4.63Z" transform="translate(-360.97 -438.2)"/><path class="cls-3" d="M769.42,509.18l-10.54-12.41h7l6.41,7.78,6.42-7.78h7l-10.54,12.41v6.62h-5.84v-6.62Z" transform="translate(-360.97 -438.2)"/><rect class="cls-4" x="138.26" y="49.77" width="357" height="2.3"/></svg>